<svg width="540" height="160" viewBox="0 0 540 160" fill="none" xmlns="http://www.w3.org/2000/svg">
    <path
        d="M216.858 130V36.9091H239.358V76.2727H240.585L271.358 36.9091H297.858L264.858 78.4545L298.449 130H271.54L248.358 93.4091L239.358 104.773V130H216.858ZM329.233 36.9091V130H306.733V36.9091H329.233ZM340.312 55.1818V36.9091H418.994V55.1818H390.767V130H368.585V55.1818H340.312ZM426.938 55.1818V36.9091H505.619V55.1818H477.392V130H455.21V55.1818H426.938ZM539.108 36.9091V130H516.608V36.9091H539.108Z"
        fill="url(#paint0_linear_0_1)" />
    <ellipse cx="81.5" cy="80" rx="81.5" ry="80" fill="url(#paint1_linear_0_1)" />
    <path d="M102.58 22L48 89.913H73.177L63.4196 143L118 75.087H92.823L102.58 22Z" fill="white" />
    <defs>
        <linearGradient id="paint0_linear_0_1" x1="-30.2211" y1="102.241" x2="1401.25" y2="102.241"
            gradientUnits="userSpaceOnUse">
            <stop stop-color="#BD00FF" />
            <stop offset="1" stop-color="#FF006B" stop-opacity="0" />
        </linearGradient>
        <linearGradient id="paint1_linear_0_1" x1="36.276" y1="140.059" x2="178.72" y2="20.6674"
            gradientUnits="userSpaceOnUse">
            <stop stop-color="#A855F7" />
            <stop offset="1" stop-color="#EC4899" stop-opacity="0" />
        </linearGradient>
    </defs>
</svg>